<svg width="71" height="30" xmlns="http://www.w3.org/2000/svg">
  <g fill-rule="nonzero" fill="none">
    <path d="M42.496 10.337c-1.555 0-2.713.763-2.713 2.6 0 1.385.763 2.346 2.629 2.346 1.581 0 2.655-.932 2.655-2.402 0-1.667-.96-2.544-2.571-2.544zM39.387 23.31c-.368.451-.734.931-.734 1.497 0 1.13 1.44 1.47 3.419 1.47 1.639 0 3.872-.115 3.872-1.64 0-.905-1.075-.96-2.432-1.046l-4.125-.281zm8.365-12.888c.508.65 1.045 1.555 1.045 2.855 0 3.137-2.458 4.973-6.018 4.973-.905 0-1.725-.112-2.233-.254l-.933 1.498 2.77.169c4.889.312 7.77.453 7.77 4.21 0 3.25-2.853 5.087-7.77 5.087-5.116 0-7.065-1.3-7.065-3.532 0-1.272.565-1.949 1.554-2.883-.933-.394-1.243-1.1-1.243-1.864 0-.622.31-1.187.82-1.725a34.82 34.82 0 0 1 1.751-1.695c-1.384-.678-2.43-2.148-2.43-4.24 0-3.249 2.148-5.48 6.47-5.48 1.216 0 1.951.111 2.601.282h5.511v2.401l-2.6.198zM55.324 5.287c-1.611 0-2.544-.933-2.544-2.545 0-1.609.933-2.485 2.544-2.485 1.639 0 2.571.876 2.571 2.485 0 1.612-.932 2.545-2.571 2.545zM51.678 22.27v-2.232l1.441-.197c.396-.057.452-.141.452-.566v-8.308c0-.31-.084-.51-.368-.593l-1.525-.538.31-2.288h5.85v11.727c0 .453.028.51.453.566l1.441.197v2.232h-8.054zM70.908 21.174c-1.216.593-2.996 1.13-4.608 1.13-3.362 0-4.634-1.355-4.634-4.55v-7.403c0-.17 0-.283-.227-.283h-1.977V7.553c2.487-.283 3.476-1.527 3.786-4.607h2.685V6.96c0 .197 0 .283.227.283h3.984v2.825h-4.21v6.754c0 1.667.395 2.317 1.92 2.317.793 0 1.611-.198 2.29-.452l.764 2.487" fill="#2F2707"/>
    <path d="M29.036 13.758L16.115.838a1.906 1.906 0 0 0-2.695 0l-2.684 2.683 3.404 3.404a2.262 2.262 0 0 1 2.866 2.885l3.28 3.28a2.267 2.267 0 1 1-1.358 1.279l-3.059-3.06v8.051a2.268 2.268 0 1 1-1.865-.066V11.17a2.267 2.267 0 0 1-1.231-2.974L9.418 4.839.558 13.7a1.906 1.906 0 0 0 0 2.696l12.922 12.92c.744.744 1.95.744 2.695 0l12.86-12.86a1.907 1.907 0 0 0 0-2.697" fill="#DE4C36"/>
  </g>
</svg>