<svg width="32" height="30" xmlns="http://www.w3.org/2000/svg">
  <g fill="#58A958" fill-rule="nonzero">
    <path d="M26.373 19.26c0 2.946-1.048 5.467-3.145 7.563-2.096 2.096-4.61 3.144-7.539 3.144-2.946 0-5.467-1.048-7.563-3.144s-3.144-4.617-3.144-7.564c0-2.946 1.048-5.463 3.144-7.55 2.096-2.089 4.61-3.133 7.54-3.133 2.961 0 5.486 1.044 7.575 3.132 2.088 2.088 3.132 4.605 3.132 7.551zm-1.846 0c0-2.445-.861-4.529-2.585-6.253-1.724-1.724-3.809-2.586-6.253-2.586s-4.532.87-6.264 2.61c-1.732 1.74-2.598 3.817-2.598 6.228 0 2.412.866 4.492 2.598 6.24 1.732 1.748 3.82 2.623 6.264 2.623 2.428 0 4.508-.87 6.24-2.61 1.732-1.74 2.598-3.825 2.598-6.253z"/>
    <path d="M21.402 10.756c0 2.947-1.049 5.468-3.145 7.564s-4.61 3.144-7.539 3.144c-2.946 0-5.467-1.048-7.563-3.144S.011 13.703.011 10.756c0-2.945 1.048-5.463 3.144-7.55C5.251 1.116 7.765.072 10.694.072c2.962 0 5.487 1.044 7.575 3.132s3.133 4.606 3.133 7.551zm-1.846 0c0-2.443-.862-4.528-2.586-6.252-1.724-1.724-3.808-2.586-6.252-2.586s-4.532.87-6.264 2.61c-1.732 1.74-2.598 3.817-2.598 6.228 0 2.413.866 4.492 2.598 6.24 1.732 1.749 3.82 2.623 6.264 2.623 2.428 0 4.508-.87 6.24-2.61 1.732-1.74 2.598-3.824 2.598-6.253z"/>
    <path d="M31.546 10.756c0 2.947-1.048 5.468-3.144 7.564-2.097 2.096-4.61 3.144-7.54 3.144-2.946 0-5.467-1.048-7.563-3.144s-3.144-4.617-3.144-7.564c0-2.945 1.048-5.463 3.144-7.55C15.395 1.116 17.91.072 20.84.072c2.962 0 5.487 1.044 7.575 3.132s3.132 4.606 3.132 7.551zm-1.845 0c0-2.443-.862-4.528-2.586-6.252-1.724-1.724-3.808-2.586-6.252-2.586-2.445 0-4.533.87-6.265 2.61C12.866 6.269 12 8.346 12 10.757c0 2.413.866 4.492 2.598 6.24 1.732 1.749 3.82 2.623 6.265 2.623 2.428 0 4.507-.87 6.24-2.61 1.731-1.74 2.598-3.824 2.598-6.253z"/>
  </g>
</svg>