<svg xmlns="http://www.w3.org/2000/svg" width="41" height="31">
  <path fill="#CD6799" fill-rule="nonzero" d="M34.517 17.317a8.282 8.282 0 0 0-3.624.84c-.373-.738-.746-1.396-.811-1.878-.073-.562-.161-.906-.073-1.578.087-.672.482-1.63.475-1.703-.008-.073-.088-.416-.892-.423-.804-.008-1.498.153-1.578.365-.08.212-.234.694-.336 1.191-.14.73-1.608 3.34-2.448 4.706-.27-.534-.504-1.001-.555-1.374-.073-.563-.161-.906-.073-1.578.087-.673.482-1.63.475-1.703-.008-.073-.088-.416-.892-.424-.804-.007-1.498.154-1.578.366-.08.212-.168.708-.336 1.19-.168.483-2.12 4.838-2.63 5.963-.264.577-.49 1.038-.651 1.352 0 0-.007.022-.03.058-.138.27-.218.417-.218.417v.007c-.11.197-.227.38-.285.38-.044 0-.125-.526.014-1.242.292-1.513.987-3.865.98-3.946 0-.044.13-.453-.454-.665-.57-.212-.774.14-.825.14-.051 0-.088.123-.088.123s.636-2.645-1.213-2.645c-1.154 0-2.747 1.264-3.536 2.404-.497.27-1.557.848-2.69 1.469-.43.241-.876.482-1.293.709-.029-.03-.058-.066-.087-.095-2.236-2.39-6.372-4.078-6.196-7.285.065-1.17.467-4.238 7.942-7.965 6.152-3.032 11.048-2.192 11.895-.328 1.213 2.66-2.623 7.599-8.98 8.315-2.425.27-3.697-.665-4.018-1.016-.336-.365-.388-.387-.512-.314-.204.11-.073.438 0 .628.19.497.972 1.374 2.295 1.805 1.169.38 4.011.592 7.452-.738 3.851-1.49 6.861-5.633 5.977-9.104-.884-3.522-6.73-4.684-12.26-2.718C9.572 2.192 6.006 4.033 3.44 6.43.394 9.28-.088 11.756.11 12.794c.71 3.682 5.787 6.08 7.819 7.855-.103.058-.198.11-.278.153-1.016.504-4.888 2.528-5.853 4.67-1.096 2.425.176 4.164 1.016 4.398 2.608.723 5.29-.577 6.73-2.726 1.439-2.148 1.263-4.939.599-6.218-.008-.014-.015-.029-.03-.044l.797-.467a38.85 38.85 0 0 1 1.468-.826c-.248.68-.43 1.49-.518 2.66-.11 1.373.453 3.156 1.19 3.858.33.307.717.314.965.314.862 0 1.25-.716 1.68-1.564.527-1.037 1.002-2.243 1.002-2.243s-.592 3.259 1.015 3.259c.585 0 1.177-.76 1.44-1.147v.007l.044-.073.095-.153v-.015c.233-.41.76-1.337 1.541-2.879 1.009-1.987 1.98-4.472 1.98-4.472s.088.607.388 1.615c.175.592.54 1.242.833 1.87-.234.33-.38.512-.38.512l.007.007c-.19.249-.395.52-.621.782-.796.95-1.746 2.039-1.878 2.353-.153.373-.117.643.175.862.212.161.592.183.98.161.716-.051 1.22-.226 1.468-.336a4.93 4.93 0 0 0 1.264-.665c.782-.577 1.257-1.403 1.213-2.492-.022-.599-.219-1.198-.46-1.76.073-.103.139-.205.212-.307 1.235-1.805 2.192-3.785 2.192-3.785s.087.606.387 1.615c.146.511.446 1.066.709 1.607-1.162.943-1.878 2.039-2.134 2.755-.46 1.33-.102 1.929.577 2.067.307.066.746-.08 1.067-.219a4.86 4.86 0 0 0 1.352-.694c.782-.577 1.534-1.38 1.49-2.47-.021-.496-.153-.986-.336-1.46.987-.41 2.258-.637 3.88-.447 3.478.41 4.165 2.58 4.034 3.493-.132.913-.863 1.41-1.104 1.564-.24.153-.321.204-.3.314.03.16.147.153.352.124.284-.051 1.826-.738 1.892-2.419.11-2.148-1.936-4.493-5.553-4.471zm-26.83 9.046c-1.155 1.256-2.762 1.731-3.457 1.33-.745-.432-.453-2.288.965-3.618.862-.81 1.973-1.563 2.71-2.023.169-.103.417-.249.717-.432.05-.029.08-.043.08-.043l.175-.11c.52 1.9.022 3.573-1.19 4.896zm8.402-5.714c-.402.979-1.242 3.485-1.753 3.346-.439-.117-.71-2.017-.088-3.894.314-.943.979-2.068 1.366-2.507.629-.701 1.323-.935 1.49-.65.213.373-.766 3.09-1.015 3.705zm6.934 3.317c-.168.088-.328.146-.402.102-.05-.029.074-.146.074-.146s.869-.935 1.212-1.359c.198-.248.432-.54.68-.87v.095c0 1.118-1.081 1.871-1.564 2.178zm5.349-1.22c-.124-.088-.102-.38.314-1.294.16-.358.54-.957 1.191-1.534.073.234.124.46.117.672-.007 1.41-1.016 1.936-1.622 2.156z"/>
</svg>
